<svg width="250" height="60" xmlns="http://www.w3.org/2000/svg" viewBox="0 13 175 40"><defs><style>.cls-1,.cls-3{fill:#00D231;}.cls-1{fill-rule:evenodd;}.cls-2{fill:#00D231;}</style></defs><g id="Layer_2" data-name="Layer 2"><g id="Layer_1-2" data-name="Layer 1"><path class="cls-1" d="M0,21.27v.6H.29V24l.29.3L2.32,21Z"/><path class="cls-2" d="M1.16,25.14l2.61-4.76S14,15.61,29.9,20.08L25.25,18S60.3,8.68,65.31,13.53c0,0,9.36,5.51,10.16,6.85h6.68L68.79,15l14.52,5.07s13.79-1.86,16.83,1.79l8.71,3.87-7.26-.6s2.25,1.79,3.49,1.79c0,0-3.12.6-7-3a5.23,5.23,0,0,1,1.74,5.37s-8.34-16.17-18.57-1.79c0,0-.15-4.62,1.74-4.77,0,0-6.83,6.85-10.74,6l-5.52-.3L74,27.53s3.63-1.42,3.77-2.68L47,25.15l2.61-2.09h8.71l-9-.6-8.71,5.07,17.71.59H34.83l4.36-.59,6.38-3.88-11.32-.29-3.77,3.57s4.93-4.91,4.93-5.36a1.91,1.91,0,0,0-.29-.9H45.57L31.64,19.48s3.56,1,1.45,2.69H23.8s4.65,3.27,3.48,6.55c0,0-1.74-7.37-10.44-6.55,0,0-7-.38-9.29,6.55L9,23.06l-5.52.3Z"/><path xmlns="http://www.w3.org/2000/svg" fill="#201e53" d="M5.86 5.76 c2.52 0 4.06 1.56 4.82 2.88 l-2.36 1.42 c-0.78 -1 -1.46 -1.46 -2.46 -1.46 c-0.86 0 -1.5 0.5 -1.5 1.2 c0 0.72 0.4 1.08 1.4 1.42 l0.94 0.34 c3.26 1.14 4.38 2.58 4.38 4.44 c0 2.92 -2.76 4.3 -5.16 4.3 c-2.56 0 -4.52 -1.52 -5.22 -3.46 l2.46 -1.32 c0.5 0.9 1.24 1.88 2.76 1.88 c1.04 0 1.82 -0.42 1.82 -1.36 c0 -0.86 -0.48 -1.26 -1.98 -1.82 l-0.8 -0.28 c-2.06 -0.74 -3.8 -1.72 -3.8 -4.28 c0 -2.28 2.16 -3.9 4.7 -3.9 z M27.22 9.56 l3.14 0 l-3.72 10.44 l-3.04 0 l-2.28 -6.5 l-2.28 6.5 l-3.04 0 l-3.72 -10.44 l3.14 0 l2.14 6.68 l2.38 -6.68 l2.76 0 l2.38 6.68 z M37.04 9.42 c2.36 0 5.66 1.78 5 6.48 l-7.26 0 c0.36 1.08 1.3 1.64 2.56 1.64 c1.28 0 1.68 -0.28 2.4 -0.58 l1.74 1.68 c-0.92 0.9 -2.16 1.56 -4.26 1.56 c-2.58 0 -5.66 -1.78 -5.66 -5.36 c0 -3.64 3.12 -5.42 5.48 -5.42 z M37.04 12.120000000000001 c-0.9 0 -1.82 0.52 -2.22 1.56 l4.42 0 c-0.32 -1.04 -1.3 -1.56 -2.2 -1.56 z M48.8 9.42 c2.36 0 5.66 1.78 5 6.48 l-7.26 0 c0.36 1.08 1.3 1.64 2.56 1.64 c1.28 0 1.68 -0.28 2.4 -0.58 l1.74 1.68 c-0.92 0.9 -2.16 1.56 -4.26 1.56 c-2.58 0 -5.66 -1.78 -5.66 -5.36 c0 -3.64 3.12 -5.42 5.48 -5.42 z M48.8 12.120000000000001 c-0.9 0 -1.82 0.52 -2.22 1.56 l4.42 0 c-0.32 -1.04 -1.3 -1.56 -2.2 -1.56 z M60.66 17.36 c0.56 0 0.96 -0.08 1.4 -0.2 l0 2.62 c-0.44 0.2 -1.16 0.34 -2.22 0.34 c-1.74 0 -3.2 -0.58 -3.2 -3.78 l0 -4.14 l-1.46 0 l0 -2.6 l1.46 0 l0 -2.44 l3.16 0 l0 2.44 l2.22 0 l0 2.6 l-2.22 0 l0 4.14 c0 0.46 0.12 1.02 0.86 1.02 z M79.53999999999999 6 l0 2.96 l-3.4 0 l0 11.04 l-3.22 0 l0 -11.04 l-3.4 0 l0 -2.96 l10.02 0 z M88.04 9.44 c0.28 0 0.56 0 0.82 0.06 l0 3.02 c-0.24 -0.06 -0.52 -0.06 -0.72 -0.06 c-1.92 0 -3.46 1.38 -3.62 3.3 l0 4.24 l-3.16 0 l0 -10.4 l3.16 0 l0 2.54 c0.48 -1.56 1.68 -2.7 3.52 -2.7 z M93.64000000000001 5.859999999999999 l0 2.66 l-3.16 0 l0 -2.66 l3.16 0 z M93.64000000000001 9.6 l0 10.4 l-3.16 0 l0 -10.4 l3.16 0 z M101.52000000000001 9.42 c2.38 0 5.12 1.78 5.12 5.36 c0 3.72 -2.74 5.42 -5.12 5.42 c-1.6 0 -2.54 -0.88 -2.68 -1.24 l0 4.84 l-3.16 0 l0 -6.02 l0 -8.18 l3.16 0 l0 0.96 c0.14 -0.22 1.08 -1.14 2.68 -1.14 z M101.06000000000002 17.42 c1.36 0 2.52 -0.92 2.52 -2.64 c0 -1.66 -1.16 -2.58 -2.52 -2.58 c-1.3 0 -2.36 0.9 -2.36 2.58 c0 1.74 1.06 2.64 2.36 2.64 z" style="transform: translate(0px, 30px);&#10;"/></g></g></svg>